<?xml version="1.0" standalone="no"?><!DOCTYPE svg PUBLIC "-//W3C//DTD SVG 1.1//EN" "http://www.w3.org/Graphics/SVG/1.1/DTD/svg11.dtd"><svg t="1780902395665" class="icon" viewBox="0 0 1024 1024" version="1.1" xmlns="http://www.w3.org/2000/svg" p-id="35243" xmlns:xlink="http://www.w3.org/1999/xlink" width="200" height="200"><path d="M774.2 882l107.8-107.8c18.8-18.8 18.8-49 0-67.8L687.6 512l194.4-194.4c18.8-18.8 18.8-49 0-67.8L774.2 142c-18.8-18.8-49-18.8-67.8 0L512 336.4 317.6 142c-18.8-18.8-49-18.8-67.8 0L142 249.8c-18.8 18.8-18.8 49 0 67.8l194.4 194.4L142 706.4c-18.8 18.8-18.8 49 0 67.8L249.8 882c18.8 18.8 49 18.8 67.8 0l194.4-194.4 194.4 194.4c18.6 18.6 49 18.6 67.8 0z" fill="" p-id="35244"></path></svg>