<?xml version="1.0" standalone="no"?><!DOCTYPE svg PUBLIC "-//W3C//DTD SVG 1.1//EN" "http://www.w3.org/Graphics/SVG/1.1/DTD/svg11.dtd"><svg t="1780900411420" class="icon" viewBox="0 0 1024 1024" version="1.1" xmlns="http://www.w3.org/2000/svg" p-id="5296" xmlns:xlink="http://www.w3.org/1999/xlink" width="200" height="200"><path d="M678.570667 556.8l-90.496 90.538667 255.829333 255.829333 90.496-90.496-255.829333-255.829333zM746.666667 426.666667c82.346667 0 149.333333-66.986667 149.333333-149.333334 0-24.746667-6.826667-47.786667-17.493333-68.266666l-115.2 115.2-63.573334-63.573334 115.2-115.2c-20.48-10.666667-43.52-17.493333-68.266666-17.493333C664.32 128 597.333333 194.986667 597.333333 277.333333c0 17.493333 3.413333 34.133333 8.96 49.493334l-78.933333 78.933333-75.946667-75.946667 30.293334-30.293333-60.16-60.16L512 148.906667a128 128 0 0 0-180.906667 0L180.053333 299.946667l60.16 60.16H119.893333l-30.293333 30.293333 151.04 151.04 30.293333-30.293333V390.4l60.16 60.16 30.293334-30.293333 75.946666 75.946666-316.16 316.16 90.453334 90.453334L697.173333 417.706667c15.36 5.546667 32 8.96 49.493334 8.96z" p-id="5297"></path></svg>