<?xml version="1.0" standalone="no"?><!DOCTYPE svg PUBLIC "-//W3C//DTD SVG 1.1//EN" "http://www.w3.org/Graphics/SVG/1.1/DTD/svg11.dtd"><svg t="1780901470486" class="icon" viewBox="0 0 1024 1024" version="1.1" xmlns="http://www.w3.org/2000/svg" p-id="31518" xmlns:xlink="http://www.w3.org/1999/xlink" width="200" height="200"><path d="M0 0h1024v1024H0z" fill="#FFFFFF" fill-opacity="0" p-id="31519"></path><path d="M896 320v640H128V320h768zM352 736h-64v64h64v-64z m384 0H416v64h320v-64zM352 608h-64v64h64v-64z m384 0H416v64h320v-64zM352 480h-64v64h64v-64z m384 0H416v64h320v-64zM384 64v64h256V64h64v64h192v128H128V128h192V64h64z" fill="#151A24" p-id="31520"></path></svg>